<svg xmlns="http://www.w3.org/2000/svg" viewBox="0 0 500 500"><defs><style>.cls-1{fill:#fff;}</style></defs><title>Ресурс 1</title><g id="Слой_2" data-name="Слой 2"><g id="Слой_1-2" data-name="Слой 1"><rect class="cls-1" width="500" height="500"/><rect x="212.23" y="285.96" width="75.54" height="18.89"/><polygon points="160.63 221.85 133.93 195.16 122.73 195.16 122.73 270.7 198.27 270.7 198.27 195.16 187.32 195.16 160.63 221.85"/><polygon points="377.27 208.9 363.53 195.16 301.73 195.16 301.73 270.7 363.53 270.7 377.27 256.96 377.27 248.29 363.53 234.55 377.27 220.81 377.27 208.9"/><polygon points="225.97 195.16 212.23 208.9 212.23 256.96 225.97 270.7 274.03 270.7 287.77 256.96 287.77 208.9 274.03 195.16 225.97 195.16"/></g></g></svg>