<svg xmlns="http://www.w3.org/2000/svg" viewBox="0 0 500 500"><defs><style>.cls-1{fill:#fff;}</style></defs><title>vertivalLogoSVG</title><g id="Слой_2" data-name="Слой 2"><g id="Слой_1-2" data-name="Слой 1"><rect class="cls-1" width="500" height="500"/><polygon points="251.06 231.84 135.57 116.36 87.11 116.36 87.11 443.18 413.92 443.18 413.92 116.36 366.54 116.36 251.06 231.84"/><polygon points="251.2 75.27 215 39.07 199.81 39.07 199.81 141.51 302.25 141.51 302.25 39.07 287.39 39.07 251.2 75.27"/><polygon class="cls-1" points="302.25 345.88 283.62 327.25 199.81 327.25 199.81 429.69 283.62 429.69 302.25 411.06 302.25 399.3 283.62 380.67 302.25 362.04 302.25 345.88"/><rect class="cls-1" x="199.81" y="285.32" width="102.44" height="25.61"/><polygon points="218.44 162.19 199.81 180.82 199.81 246 218.44 264.63 283.62 264.63 302.25 246 302.25 180.82 283.62 162.19 218.44 162.19"/><polygon class="cls-1" points="251.06 231.84 199.81 180.82 199.81 246 218.44 264.63 283.62 264.63 302.25 246 302.25 180.82 251.06 231.84 251.06 231.84"/></g></g></svg>